HIERARCHY
ROOT hips
{
  OFFSET 0 10.6860622 2.3727825e-15
  CHANNELS 6 Xposition Yposition Zposition Yrotation Xrotation Zrotation
  JOINT leftUpperLeg
  {
    OFFSET 0.6642549969 -0.9402397400000004 0
    CHANNELS 3 Yrotation Xrotation Zrotation
    JOINT leftLowerLeg
    {
      OFFSET 0 -3.997221335632195 0
      CHANNELS 3 Yrotation Xrotation Zrotation
      JOINT leftFoot
      {
        OFFSET -0.13777839790000004 -4.6145792000000005 -0.22186036399999998
        CHANNELS 3 Yrotation Xrotation Zrotation
        JOINT leftToes
        {
          OFFSET -0.03777410834999995 -0.9130806927000008 0.85230013
          CHANNELS 3 Yrotation Xrotation Zrotation
          End Site
          {
            OFFSET -0.03777410834999995 -0.9130806927000008 0.85230013
          }
        }
      }
    }
  }
  JOINT rightUpperLeg
  {
    OFFSET -0.6642778626 -0.9402397400000004 0
    CHANNELS 3 Yrotation Xrotation Zrotation
    JOINT rightLowerLeg
    {
      OFFSET 0 -3.997221452859387 0
      CHANNELS 3 Yrotation Xrotation Zrotation
      JOINT rightFoot
      {
        OFFSET 0.1377926176 -4.6145792000000005 -0.22185782299999995
        CHANNELS 3 Yrotation Xrotation Zrotation
        JOINT rightToes
        {
          OFFSET 0.037780746850000047 -0.9130806927000008 0.85230167
          CHANNELS 3 Yrotation Xrotation Zrotation
          End Site
          {
            OFFSET 0.037780746850000047 -0.9130806927000008 0.85230167
          }
        }
      }
    }
  }
  JOINT spine
  {
    OFFSET 0 0.13988381660000015 0
    CHANNELS 3 Yrotation Xrotation Zrotation
    JOINT chest
    {
      OFFSET 0 0.6191039003973773 0
      CHANNELS 3 Yrotation Xrotation Zrotation
      JOINT upperChest
      {
        OFFSET 0 0.9855186130586943 0
        CHANNELS 3 Yrotation Xrotation Zrotation
        JOINT leftShoulder
        {
          OFFSET 0.1807663869 1.5087829790000005 0
          CHANNELS 3 Yrotation Xrotation Zrotation
          JOINT leftUpperArm
          {
            OFFSET 0.5985063006419806 0 0
            CHANNELS 3 Yrotation Xrotation Zrotation
            JOINT leftLowerArm
            {
              OFFSET 2.2993332369501065 0 0
              CHANNELS 3 Yrotation Xrotation Zrotation
              JOINT leftHand
              {
                OFFSET 2.395047042602395 0 0
                CHANNELS 3 Yrotation Xrotation Zrotation
                JOINT leftIndexProximal
                {
                  OFFSET 0.5766295810000004 0.04556643899499946 0.17265095988184
                  CHANNELS 3 Yrotation Xrotation Zrotation
                  JOINT leftIndexIntermediate
                  {
                    OFFSET 0.2957229000000008 -0.019352197700001517 -0.007932640616999987
                    CHANNELS 3 Yrotation Xrotation Zrotation
                    JOINT leftIndexDistal
                    {
                      OFFSET 0.19008243099999922 -0.012484908149998475 -0.002786250786000012
                      CHANNELS 3 Yrotation Xrotation Zrotation
                      End Site
                      {
                        OFFSET 0.19008243099999922 -0.012484908149998475 -0.002786250786000012
                      }
                    }
                  }
                }
                JOINT leftMiddleProximal
                {
                  OFFSET 0.5834975091000001 0.0524350405149987 0.02204081888183999
                  CHANNELS 3 Yrotation Xrotation Zrotation
                  JOINT leftMiddleIntermediate
                  {
                    OFFSET 0.33880573540000003 -0.019871473270000717 -0.00000971183179999946
                    CHANNELS 3 Yrotation Xrotation Zrotation
                    JOINT leftMiddleDistal
                    {
                      OFFSET 0.20676022730000088 -0.012221336379999448 0.0001471936708000235
                      CHANNELS 3 Yrotation Xrotation Zrotation
                      End Site
                      {
                        OFFSET 0.20676022730000088 -0.012221336379999448 0.0001471936708000235
                      }
                    }
                  }
                }
                JOINT leftLittleProximal
                {
                  OFFSET 0.5344154683999995 -0.012880921405001189 -0.24414037221816004
                  CHANNELS 3 Yrotation Xrotation Zrotation
                  JOINT leftLittleIntermediate
                  {
                    OFFSET 0.21758961730000093 -0.011650919939999227 0.011893592810000034
                    CHANNELS 3 Yrotation Xrotation Zrotation
                    JOINT leftLittleDistal
                    {
                      OFFSET 0.1475273964999999 -0.008152365682999818 0.006001092492999946
                      CHANNELS 3 Yrotation Xrotation Zrotation
                      End Site
                      {
                        OFFSET 0.1475273964999999 -0.008152365682999818 0.006001092492999946
                      }
                    }
                  }
                }
                JOINT leftRingProximal
                {
                  OFFSET 0.5799399463000003 0.026911854694997794 -0.12150566991816003
                  CHANNELS 3 Yrotation Xrotation Zrotation
                  JOINT leftRingIntermediate
                  {
                    OFFSET 0.26167887460000006 -0.013480186499999602 0.010996293000000053
                    CHANNELS 3 Yrotation Xrotation Zrotation
                    JOINT leftRingDistal
                    {
                      OFFSET 0.17667108799999987 -0.008990287899999228 0.0055541023999999065
                      CHANNELS 3 Yrotation Xrotation Zrotation
                      End Site
                      {
                        OFFSET 0.17667108799999987 -0.008990287899999228 0.0055541023999999065
                      }
                    }
                  }
                }
                JOINT leftThumbProximal
                {
                  OFFSET 0.11018806699999972 -0.09448718900500053 0.17047963138184
                  CHANNELS 3 Yrotation Xrotation Zrotation
                  JOINT leftThumbIntermediate
                  {
                    OFFSET 0.31062601459999983 -0.08126270900000132 0.15443142000000007
                    CHANNELS 3 Yrotation Xrotation Zrotation
                    JOINT leftThumbDistal
                    {
                      OFFSET 0.21627175790000086 -0.08833193599999878 0.018771167799999988
                      CHANNELS 3 Yrotation Xrotation Zrotation
                      End Site
                      {
                        OFFSET 0.21627175790000086 -0.08833193599999878 0.018771167799999988
                      }
                    }
                  }
                }
              }
            }
          }
        }
        JOINT neck
        {
          OFFSET 0 1.5463305265074576 0
          CHANNELS 3 Yrotation Xrotation Zrotation
          JOINT head
          {
            OFFSET 0 0.8456443600000344 0
            CHANNELS 3 Yrotation Xrotation Zrotation
            JOINT leftEye
            {
              OFFSET 0.30408573140000006 0.5104519199999995 0.1276382305
              CHANNELS 3 Yrotation Xrotation Zrotation
              End Site
              {
                OFFSET 0.30408573140000006 0.5104519199999995 0.1276382305
              }
            }
            JOINT rightEye
            {
              OFFSET -0.30409491089999996 0.5104519199999995 0.1276379445
              CHANNELS 3 Yrotation Xrotation Zrotation
              End Site
              {
                OFFSET -0.30409491089999996 0.5104519199999995 0.1276379445
              }
            }
            JOINT jaw
            {
              OFFSET -3.155239131000001e-7 -0.11984121820000082 0.60178107
              CHANNELS 3 Yrotation Xrotation Zrotation
              End Site
              {
                OFFSET -3.155239131000001e-7 -0.11984121820000082 0.60178107
              }
            }
          }
        }
        JOINT rightShoulder
        {
          OFFSET -0.1807303465 1.5087829790000005 0
          CHANNELS 3 Yrotation Xrotation Zrotation
          JOINT rightUpperArm
          {
            OFFSET -0.5985063796536958 0 0
            CHANNELS 3 Yrotation Xrotation Zrotation
            JOINT rightLowerArm
            {
              OFFSET -2.2993322059002854 0 0
              CHANNELS 3 Yrotation Xrotation Zrotation
              JOINT rightHand
              {
                OFFSET -2.395045314457259 0 0
                CHANNELS 3 Yrotation Xrotation Zrotation
                JOINT rightIndexProximal
                {
                  OFFSET -0.5764487688300002 0.0441371204405987 0.17361932004999997
                  CHANNELS 3 Yrotation Xrotation Zrotation
                  JOINT rightIndexIntermediate
                  {
                    OFFSET -0.29573011380000047 -0.01934826376999843 -0.007698921482999974
                    CHANNELS 3 Yrotation Xrotation Zrotation
                    JOINT rightIndexDistal
                    {
                      OFFSET -0.19008373999999884 -0.012503266380000655 -0.0026365778999999897
                      CHANNELS 3 Yrotation Xrotation Zrotation
                      End Site
                      {
                        OFFSET -0.19008373999999884 -0.012503266380000655 -0.0026365778999999897
                      }
                    }
                  }
                }
                JOINT rightMiddleProximal
                {
                  OFFSET -0.5834852037300005 0.05211639405060153 0.02307162440000001
                  CHANNELS 3 Yrotation Xrotation Zrotation
                  JOINT rightMiddleIntermediate
                  {
                    OFFSET -0.33880114510000003 -0.019952774050000954 0.0002455003561999819
                    CHANNELS 3 Yrotation Xrotation Zrotation
                    JOINT rightMiddleDistal
                    {
                      OFFSET -0.20675694929999955 -0.012273788999999091 0.00030209124000002766
                      CHANNELS 3 Yrotation Xrotation Zrotation
                      End Site
                      {
                        OFFSET -0.20675694929999955 -0.012273788999999091 0.00030209124000002766
                      }
                    }
                  }
                }
                JOINT rightLittleProximal
                {
                  OFFSET -0.5346811737299992 -0.011214256288399227 -0.24363941305000003
                  CHANNELS 3 Yrotation Xrotation Zrotation
                  JOINT rightLittleIntermediate
                  {
                    OFFSET -0.21757715980000092 -0.011771559690000988 0.01201554387
                    CHANNELS 3 Yrotation Xrotation Zrotation
                    JOINT rightLittleDistal
                    {
                      OFFSET -0.1475201849000004 -0.00822055339600003 0.006082065407000015
                      CHANNELS 3 Yrotation Xrotation Zrotation
                      End Site
                      {
                        OFFSET -0.1475201849000004 -0.00822055339600003 0.006082065407000015
                      }
                    }
                  }
                }
                JOINT rightRingProximal
                {
                  OFFSET -0.5800810755299999 0.027657985680600072 -0.12066365025000003
                  CHANNELS 3 Yrotation Xrotation Zrotation
                  JOINT rightRingIntermediate
                  {
                    OFFSET -0.26166445029999974 -0.013623118409999302 0.011164098990000045
                    CHANNELS 3 Yrotation Xrotation Zrotation
                    JOINT rightRingDistal
                    {
                      OFFSET -0.17666387530000027 -0.009072900100000503 0.005668185599999959
                      CHANNELS 3 Yrotation Xrotation Zrotation
                      End Site
                      {
                        OFFSET -0.17666387530000027 -0.009072900100000503 0.005668185599999959
                      }
                    }
                  }
                }
                JOINT rightThumbProximal
                {
                  OFFSET -0.10997596379000074 -0.09577489355940072 0.16989765924999997
                  CHANNELS 3 Yrotation Xrotation Zrotation
                  JOINT rightThumbIntermediate
                  {
                    OFFSET -0.31036620999999986 -0.08229339117999834 0.15440884469999996
                    CHANNELS 3 Yrotation Xrotation Zrotation
                    JOINT rightThumbDistal
                    {
                      OFFSET -0.21631306399999906 -0.08825326400000111 0.018656797720000014
                      CHANNELS 3 Yrotation Xrotation Zrotation
                      End Site
                      {
                        OFFSET -0.21631306399999906 -0.08825326400000111 0.018656797720000014
                      }
                    }
                  }
                }
              }
            }
          }
        }
      }
    }
  }
}
MOTION
Frames: 4
Frame Time: 0.03333333333333333
-0.03232826292514801 -0.07928024046630888 0.07979853451251984 -5.072814134676387 -4.198968252814188 -2.6518331768780916 15.125459577408268 -8.670906299991803 7.0224843244012485 2.099928158265648 10.77109877569266 4.639611079206118 0.39382787755251175 1.744184331899334 -7.3173234869540735 0.000010665528713414314 -4.869223083942768 0.0000015235744934915233 -10.678393113997096 1.5850329408219679 2.8457414037431406 -9.884358688906827 7.147819595886938 -4.410443205647769 -1.5462247587952436 -4.179172705724669 3.3219201462264287 -0.000010441697742105412 -6.8993014388870515 -0.000002440536503616687 1.7740197603842878 2.7177220361808545 2.9192260140778212 0.938730565056672 1.9201687106632483 3.245164504841221 0 0 0 -16.78053796936948 1.2216697653884416 -11.739784627405527 -20.767018216740727 3.051625543146685 -72.18191680064504 -1.4264817514533634 0.000227258088229115 0.01842749065792357 -1.1958490884951867 -32.22317515371886 -6.0901494789050945 -1.0672881913995378 0.013496443085835426 -7.580749749860176 1.5317893512967542 0.23424441805000593 -17.389678464534335 0.7174113629898455 0.05044716007273521 -8.0472182210349 2.465373757190709 -0.10316398001847195 -15.733207843768916 1.5343287737834876 0.23502941613930495 -17.419485688245057 1.620121345791695 0.26278799402430464 -18.427197416622715 5.218703361630321 0.8455042654436079 -27.112918211200462 1.5343632175844992 0.23504526444595975 -17.41986971527155 1.4573438397688723 0.2115551581943199 -16.51987504489324 3.374715527938161 0.08815157011310673 -21.170634978682234 1.830547116508532 0.3380339994678421 -20.924804694532835 1.5735133610373158 0.24750481392712448 -17.878956769525974 2.2227078617582205 -0.6644791230131366 4.778483053283899 26.125338785981512 10.712322164453008 21.92894228634823 3.7618548142725903 -13.793007017879109 8.091967656311281 -0.1665028229236313 5.13603736612991 0.612238955714095 1.2943931258637253 -7.3886303656041195 -0.3548994948617103 0 0 0 0 0 0 0 0 0 15.100599857483777 1.2481644602299045 14.748354120871587 28.952287309020324 11.7732248273266 64.45001332722761 6.5669657698979975 0.004847270283777564 -0.08462917466815399 -0.640443562545301 -19.990201152747254 6.432475711498599 1.3501158354306335 0.03350797282816776 6.807740409143573 -1.1745289613204986 0.17992963657319105 17.419195962517243 -0.5501116890965684 0.038765555345028034 8.060557442203875 -2.013406275493378 -0.16089911115766192 15.030867819206506 -1.176475152346171 0.1805287618533341 17.449033658558367 -1.2422580481012317 0.20186876632160453 18.4585506878024 -4.555318720501782 0.6712322376316606 26.474967705946604 -1.176518792538606 0.18056486064953892 17.449409538094173 -1.1174405916689083 0.16249991643901218 16.547795322938132 -2.816947036257241 -0.015201885179485265 20.487455949711656 -1.4035685931802657 0.2596535449488982 20.96071649316602 -1.20651329909908 0.19011551612080635 17.909304764790324 -0.22899815779189922 -1.667239526878455 -4.2097788552125674 -30.656207580773398 11.051680138983896 -22.2034871777876 -3.8632145969190255 -15.532369923732235 -11.625217202189742
-0.031866587698459625 -0.07892070524902373 0.07972962409257889 -5.07064917218674 -4.193158973112043 -2.6595847078079533 15.11967327762455 -8.665434287553323 7.025051141014933 2.109937966689657 10.745165510802762 4.642422421962546 0.3934325087327142 1.7536261305860383 -7.321667883264671 0.000004264177410283707 -4.862349768059659 -0.0000017924664432963145 -10.687844838000686 1.6072699929655354 2.8459494091045103 -9.882585808293074 7.095271259288702 -4.39085705384107 -1.5333397802936655 -4.15193966360714 3.3129382884522576 0.000013769598377897455 -6.902979247792785 -1.7889347995575606e-7 1.7739623668362703 2.705066682274567 2.9131230733098694 0.9386843770516263 1.9134239668376378 3.2398500578363447 0 0 0 -16.787478721452462 1.2194456072762732 -11.750594352923311 -20.752612333074616 3.0738690906980723 -72.18438471261419 -1.4203348792084758 0.00021275567406706068 0.018355006612526023 -1.19123524195549 -32.21468199297888 -6.088431985567469 -1.0672881913995378 0.013496443085835426 -7.580749749860176 1.5317893512967542 0.23424441805000593 -17.389678464534335 0.7174113629898455 0.05044716007273521 -8.0472182210349 2.465373757190709 -0.10316398001847195 -15.733207843768916 1.5343287737834876 0.23502941613930495 -17.419485688245057 1.620121345791695 0.26278799402430464 -18.427197416622715 5.218703361630321 0.8455042654436079 -27.112918211200462 1.5343632175844992 0.23504526444595975 -17.41986971527155 1.4573438397688723 0.2115551581943199 -16.51987504489324 3.374715527938161 0.08815157011310673 -21.170634978682234 1.830547116508532 0.3380339994678421 -20.924804694532835 1.5735133610373158 0.24750481392712448 -17.878956769525974 2.2227078617582205 -0.6644791230131366 4.778483053283899 26.125338785981512 10.712322164453008 21.92894228634823 3.7618548142725903 -13.793007017879109 8.091967656311281 -0.16752272694308165 5.124209617639131 0.6071218058314038 1.2805275712194615 -7.396522509375115 -0.3444184060229515 0 0 0 0 0 0 0 0 0 15.085390582168968 1.2503522416051553 14.754271364175974 28.954859321204754 11.799981917793149 64.45340800259926 6.5698636905280745 0.004866621930653245 -0.08470872227123394 -0.6379807053124237 -19.993531787085093 6.448561440598901 1.3501158354306335 0.03350797282816776 6.807740409143573 -1.1745289613204986 0.17992963657319105 17.419195962517243 -0.5501116890965684 0.038765555345028034 8.060557442203875 -2.013406275493378 -0.16089911115766192 15.030867819206506 -1.176475152346171 0.1805287618533341 17.449033658558367 -1.2422580481012317 0.20186876632160453 18.4585506878024 -4.555318720501782 0.6712322376316606 26.474967705946604 -1.176518792538606 0.18056486064953892 17.449409538094173 -1.1174405916689083 0.16249991643901218 16.547795322938132 -2.816947036257241 -0.015201885179485265 20.487455949711656 -1.4035685931802657 0.2596535449488982 20.96071649316602 -1.20651329909908 0.19011551612080635 17.909304764790324 -0.22899815779189922 -1.667239526878455 -4.2097788552125674 -30.656207580773398 11.051680138983896 -22.2034871777876 -3.8632145969190255 -15.532369923732235 -11.625217202189742
-0.0315326564013958 -0.07856212370605498 0.07980402559041977 -5.068527140967707 -4.185388936390951 -2.667279136657676 15.113691796379738 -8.664613838010352 7.028204550626795 2.1122873859230094 10.72580978506621 4.644160943439963 0.39266277824901635 1.763959418652964 -7.3243422643753595 -0.000012726853939774808 -4.862396895212559 0.000004504595150529442 -10.69110281933079 1.6298883311741021 2.850001400529755 -9.880605209811767 7.038939902030626 -4.375239096731921 -1.526870320974268 -4.123538706537114 3.3058211105326842 0.000004688566957938259 -6.894303568977729 -9.196341804296002e-7 1.7743083764354906 2.6956625951891424 2.9063018194163814 0.9390219447750905 1.9079320026392648 3.2343329084760937 0 0 0 -16.791852738840074 1.2174472183649914 -11.762850505987846 -20.73826171961688 3.090192307077666 -72.17929621314657 -1.4198493194236352 0.0002145046489748574 0.01834960716145628 -1.1888911452508448 -32.206294564299135 -6.084204483154096 -1.0672881913995378 0.013496443085835426 -7.580749749860176 1.5317893512967542 0.23424441805000593 -17.389678464534335 0.7174113629898455 0.05044716007273521 -8.0472182210349 2.465373757190709 -0.10316398001847195 -15.733207843768916 1.5343287737834876 0.23502941613930495 -17.419485688245057 1.620121345791695 0.26278799402430464 -18.427197416622715 5.218703361630321 0.8455042654436079 -27.112918211200462 1.5343632175844992 0.23504526444595975 -17.41986971527155 1.4573438397688723 0.2115551581943199 -16.51987504489324 3.374715527938161 0.08815157011310673 -21.170634978682234 1.830547116508532 0.3380339994678421 -20.924804694532835 1.5735133610373158 0.24750481392712448 -17.878956769525974 2.2227078617582205 -0.6644791230131366 4.778483053283899 26.125338785981512 10.712322164453008 21.92894228634823 3.7618548142725903 -13.793007017879109 8.091967656311281 -0.16787971181588926 5.113439853613966 0.5993534920408848 1.2696790528335535 -7.401534055176558 -0.33908814885417005 0 0 0 0 0 0 0 0 0 15.062815444862489 1.2536636461989106 14.762570144877136 28.983002151987982 11.826765170817499 64.45168321089506 6.558377080997735 0.004855596244385017 -0.08453244488909081 -0.6266070881292491 -20.017077184359447 6.462079197421227 1.3501158354306335 0.03350797282816776 6.807740409143573 -1.1745289613204986 0.17992963657319105 17.419195962517243 -0.5501116890965684 0.038765555345028034 8.060557442203875 -2.013406275493378 -0.16089911115766192 15.030867819206506 -1.176475152346171 0.1805287618533341 17.449033658558367 -1.2422580481012317 0.20186876632160453 18.4585506878024 -4.555318720501782 0.6712322376316606 26.474967705946604 -1.176518792538606 0.18056486064953892 17.449409538094173 -1.1174405916689083 0.16249991643901218 16.547795322938132 -2.816947036257241 -0.015201885179485265 20.487455949711656 -1.4035685931802657 0.2596535449488982 20.96071649316602 -1.20651329909908 0.19011551612080635 17.909304764790324 -0.22899815779189922 -1.667239526878455 -4.2097788552125674 -30.656207580773398 11.051680138983896 -22.2034871777876 -3.8632145969190255 -15.532369923732235 -11.625217202189742
-0.03128056600689888 -0.07831893675537138 0.07998690009117126 -5.07043525317894 -4.1740852179403936 -2.674708530429052 15.107890598165953 -8.672328725365112 7.031104295045763 2.1127735579864284 10.718372489704345 4.646602639588563 0.39201619144576183 1.7699950531956676 -7.325607525653138 -0.000001688542282508318 -4.867752274982985 4.6008616708228507e-7 -10.685410240859758 1.6428534755908633 2.858221696402057 -9.879208460718356 6.993771274078497 -4.367190736353306 -1.523559961356214 -4.10083690401118 3.3025822261723117 -0.000004484880868810112 -6.888907579847003 -8.004489757618899e-7 1.7742096578050148 2.6910084430197467 2.899520641231263 0.938988549980178 1.9046747610454844 3.2293522581024874 0 0 0 -16.787358880576893 1.2165595204167754 -11.777212428716862 -20.728825756740708 3.0981027393308262 -72.16480967247686 -1.4236369057314917 0.00022051182254887548 0.01838287931932465 -1.1953565555112695 -32.1957488133651 -6.06776837966142 -1.0672881913995378 0.013496443085835426 -7.580749749860176 1.5317893512967542 0.23424441805000593 -17.389678464534335 0.7174113629898455 0.05044716007273521 -8.0472182210349 2.465373757190709 -0.10316398001847195 -15.733207843768916 1.5343287737834876 0.23502941613930495 -17.419485688245057 1.620121345791695 0.26278799402430464 -18.427197416622715 5.218703361630321 0.8455042654436079 -27.112918211200462 1.5343632175844992 0.23504526444595975 -17.41986971527155 1.4573438397688723 0.2115551581943199 -16.51987504489324 3.374715527938161 0.08815157011310673 -21.170634978682234 1.830547116508532 0.3380339994678421 -20.924804694532835 1.5735133610373158 0.24750481392712448 -17.878956769525974 2.2227078617582205 -0.6644791230131366 4.778483053283899 26.125338785981512 10.712322164453008 21.92894228634823 3.7618548142725903 -13.793007017879109 8.091967656311281 -0.16622356543082734 5.103579729471682 0.5895075640811123 1.269451770624335 -7.4133627689104316 -0.3423447233650031 0 0 0 0 0 0 0 0 0 15.045147987906475 1.2562601677874792 14.768949029477033 29.011905768558478 11.842739027367966 64.44471777526829 6.547067080503722 0.004826442875809438 -0.08437538406144757 -0.6171686054027717 -20.041460389333558 6.463961763270647 1.3501158354306335 0.03350797282816776 6.807740409143573 -1.1745289613204986 0.17992963657319105 17.419195962517243 -0.5501116890965684 0.038765555345028034 8.060557442203875 -2.013406275493378 -0.16089911115766192 15.030867819206506 -1.176475152346171 0.1805287618533341 17.449033658558367 -1.2422580481012317 0.20186876632160453 18.4585506878024 -4.555318720501782 0.6712322376316606 26.474967705946604 -1.176518792538606 0.18056486064953892 17.449409538094173 -1.1174405916689083 0.16249991643901218 16.547795322938132 -2.816947036257241 -0.015201885179485265 20.487455949711656 -1.4035685931802657 0.2596535449488982 20.96071649316602 -1.20651329909908 0.19011551612080635 17.909304764790324 -0.22899815779189922 -1.667239526878455 -4.2097788552125674 -30.656207580773398 11.051680138983896 -22.2034871777876 -3.8632145969190255 -15.532369923732235 -11.625217202189742
